# xmcd CD database file
#
# Track frame offsets:
#	150
#	31410
#	56435
#	86813
#	108372
#	130287
#	152307
#	179120
#	235312
#	285557
#	304944
#
# Disc length: 4510 seconds
#
# Revision: 1
# Processed by: cddbd v1.4PL0 Copyright (c) Steve Scherf et al.
# Submitted via: CDex 1.51
#
DISCID=93119c0b
DTITLE=Cannonball Adderley - 75th Birthday Celebration [Disc One]
DYEAR=2003
DGENRE=Jazz
TTITLE0=A Foggy Day 
TTITLE1=Nardis
TTITLE2=Just One Of Those Things
TTITLE3=Serves Me Right
TTITLE4=Themes: The Henry John Story - Green, Green Rocky Road - Job's Red Wagon from the first movement of "Alabama Concerto"
TTITLE5=Spring Cannon
TTITLE6=Stablemates
TTITLE7=This Here
TTITLE8=Hi-Fly
TTITLE9=You Leave Me Breathless
TTITLE10=Work Song
EXTD=YEAR: 2003
EXTT0=
EXTT1=
EXTT2=
EXTT3=
EXTT4=
EXTT5=
EXTT6=
EXTT7=
EXTT8=
EXTT9=
EXTT10=
PLAYORDER=
